<svg width="200" height="44" viewBox="0 0 200 44" fill="none" xmlns="http://www.w3.org/2000/svg">
<path d="M18.0792 41.184C14.5326 41.184 11.3779 40.4747 8.61522 39.056C5.88989 37.6747 3.79922 35.6213 2.34322 32.896C0.887219 30.208 0.289885 26.9787 0.551219 23.208C0.775219 19.5493 2.04455 15.2187 4.35922 10.216L9.79122 12.68C8.82055 14.8827 8.07389 16.824 7.55122 18.504C7.02855 20.184 6.76722 21.9013 6.76722 23.656C6.76722 26.7547 7.73789 29.0507 9.67922 30.544C11.6206 32.0747 14.4206 32.84 18.0792 32.84C20.0952 32.84 21.9992 32.616 23.7912 32.168C25.6206 31.72 27.1699 31.16 28.4392 30.488C29.7459 29.816 30.6419 29.144 31.1272 28.472C30.4552 27.8373 29.0366 26.9227 26.8712 25.728C24.7059 24.5707 22.4659 23.5627 20.1512 22.704L21.8872 14.864C28.0099 16.0587 33.4046 16.656 38.0712 16.656H41.0392L41.4872 20.856L41.0392 25H38.0712C37.3619 25 36.2979 24.9627 34.8792 24.888C36.2606 26.2693 36.9512 27.5947 36.9512 28.864C36.9512 30.7307 36.1112 32.616 34.4312 34.52C32.7512 36.4613 30.4552 38.048 27.5432 39.28C24.6686 40.5493 21.5139 41.184 18.0792 41.184ZM40.1301 20.856L40.5781 16.656H45.5621C49.2581 16.656 51.8714 16.3387 53.4021 15.704C54.9328 15.0693 55.6981 14.0987 55.6981 12.792C55.6981 11.9707 55.3061 10.4587 54.5221 8.256C53.7381 6.016 53.1221 4.392 52.6741 3.384L58.5541 0.135998C59.3008 1.74133 60.0474 3.81333 60.7941 6.352C61.5408 8.85333 61.9141 11.0747 61.9141 13.016C61.9141 16.8987 60.6448 19.8667 58.1061 21.92C55.6048 23.9733 51.8528 25 46.8501 25H40.5781L40.1301 20.856ZM41.0821 33.4C41.0821 33.4 41.6794 32.8027 42.8741 31.608L45.5061 28.864C45.5061 28.864 46.5141 29.872 48.5301 31.888L50.0421 33.4L45.5061 37.824L41.0821 33.4ZM50.8261 36.032C50.8261 36.032 51.7034 36.9093 53.4581 38.664L54.8021 40.008L50.8261 43.928L46.9061 40.008L50.8261 36.032ZM56.0901 28.864C56.4634 29.2747 57.5834 30.4133 59.4501 32.28C59.4501 32.28 59.8234 32.6533 60.5701 33.4L56.0901 37.824L51.6101 33.4L56.0901 28.864ZM95.5714 41.184C92.0247 41.184 88.8701 40.4747 86.1074 39.056C83.3821 37.6747 81.2914 35.6213 79.8354 32.896C78.3794 30.208 77.7821 26.9787 78.0434 23.208C78.2674 19.5493 79.5367 15.2187 81.8514 10.216L87.2834 12.68C86.3127 14.8827 85.5661 16.824 85.0434 18.504C84.5207 20.184 84.2594 21.9013 84.2594 23.656C84.2594 26.7547 85.2301 29.0507 87.1714 30.544C89.1127 32.0747 91.9127 32.84 95.5714 32.84C97.5874 32.84 99.4914 32.616 101.283 32.168C103.113 31.72 104.662 31.16 105.931 30.488C107.238 29.816 108.134 29.144 108.619 28.472C107.947 27.8373 106.529 26.9227 104.363 25.728C102.198 24.5707 99.9581 23.5627 97.6434 22.704L99.3794 14.864C105.502 16.0587 110.897 16.656 115.563 16.656H118.531L118.979 20.856L118.531 25H115.563C114.854 25 113.79 24.9627 112.371 24.888C113.753 26.2693 114.443 27.5947 114.443 28.864C114.443 30.7307 113.603 32.616 111.923 34.52C110.243 36.4613 107.947 38.048 105.035 39.28C102.161 40.5493 99.0061 41.184 95.5714 41.184ZM117.958 16.656H118.294C121.132 16.656 123.185 16.3573 124.454 15.76C125.761 15.1627 126.508 14.192 126.694 12.848C126.769 12.2507 126.806 11.784 126.806 11.448C126.806 10.552 126.713 9.52533 126.526 8.368C126.34 7.17333 126.228 6.42667 126.19 6.128L132.014 5.008C132.5 7.77067 132.742 10.8507 132.742 14.248C132.892 14.8827 133.302 15.4427 133.974 15.928C134.684 16.4133 135.673 16.656 136.942 16.656H137.278L137.726 20.856L137.278 25H136.942C135.449 25 134.049 24.6453 132.742 23.936C131.473 23.2267 130.39 22.2933 129.494 21.136C128.412 22.48 126.937 23.4693 125.07 24.104C123.241 24.7013 120.982 25 118.294 25H117.958V16.656ZM125.238 29.368C126.396 30.488 127.534 31.6267 128.654 32.784L130.39 34.52L125.238 39.672L120.03 34.52L125.238 29.368ZM159.172 25C155.625 25 152.975 23.712 151.22 21.136C149.876 22.48 148.047 23.4693 145.732 24.104C143.455 24.7013 140.58 25 137.108 25H136.716V16.656H137.052C140.412 16.656 143.044 16.432 144.948 15.984C146.889 15.4987 148.177 14.7707 148.812 13.8L147.244 6.576L152.788 4.672C153.609 8.10667 154.3 10.9067 154.86 13.072C155.233 14.3413 155.756 15.256 156.428 15.816C157.1 16.376 157.996 16.656 159.116 16.656H159.396L159.844 20.856L159.396 25H159.172ZM141.588 29.704L143.156 31.272L146.348 34.464L141.588 39.168L136.884 34.464L141.588 29.704ZM151.444 29.704L153.012 31.272L156.204 34.464L151.444 39.168L146.74 34.464L151.444 29.704ZM190.002 25C188.285 24.9627 186.791 24.5333 185.522 23.712C184.29 22.8907 183.338 21.7333 182.666 20.24C180.575 23.376 178.093 24.9627 175.218 25H174.938C173.333 25 171.933 24.5707 170.738 23.712C169.543 22.8533 168.703 21.7147 168.218 20.296C167.023 21.8267 165.642 23.0027 164.074 23.824C162.543 24.608 160.901 25 159.146 25H158.978L158.53 20.856L158.978 16.656H159.258C160.415 16.656 161.554 16.4133 162.674 15.928C163.794 15.4053 164.634 14.7707 165.194 14.024C165.978 13.128 166.575 12.12 166.986 11C167.397 9.88 167.77 8.68533 168.106 7.416L173.93 8.032C173.893 8.21867 173.687 8.96533 173.314 10.272C172.941 11.5413 172.754 12.6987 172.754 13.744C172.754 15.6853 173.538 16.656 175.106 16.656H175.218C177.159 16.656 178.653 15.6293 179.698 13.576C180.557 11.8587 181.173 9.67467 181.546 7.024L187.37 7.304C187.221 7.90133 187.071 8.76 186.922 9.88C186.81 10.9627 186.754 11.8587 186.754 12.568C186.754 15.2933 187.874 16.656 190.114 16.656H190.17C191.29 16.656 192.149 16.3387 192.746 15.704C193.381 15.0693 193.698 14.248 193.698 13.24C193.698 12.232 193.306 10.6267 192.522 8.424C191.775 6.22133 191.141 4.54133 190.618 3.384L196.386 0.247998C197.095 1.77867 197.842 3.888 198.626 6.576C199.41 9.22667 199.802 11.56 199.802 13.576C199.802 15.6293 199.391 17.5333 198.57 19.288C197.786 21.0053 196.666 22.3867 195.21 23.432C193.754 24.4773 192.111 25 190.282 25H190.002Z" fill="#22387D"/>
</svg>
